#!OML:ASF E:\Steps\Project 1\Capture day 1\Session 2\Subject.ASF
:FULLY-SPECIFIED
:DEGREES
312
root 9.74016 22.6653 16.9548 -146.714 2.6006 177.155
lowerback -33.4318 -3.86253 -4.87708
upperback -4.69974 -1.56531 -0.175534
thorax 12.047 -0.205793 1.94107
lowerneck 3.72389 -5.59181 -2.13862
upperneck 3.60496 -7.46568 3.81026
head 0.731838 -3.68798 1.55837
rclavicle 3.2054e-015 -2.26615e-014
rhumerus -25.5496 -18.0285 -77.6779
rradius 18.0539
rwrist 35.1466
rhand -9.03763 -57.4482
rfingers 7.12502
rthumb 16.9102 -86.732
lclavicle 3.2054e-015 -2.26615e-014
lhumerus -24.8245 -23.6516 83.7149
lradius 44.5361
lwrist -9.38206
lhand -29.3821 -15.6225
lfingers 7.12502
lthumb -2.7207 14.3399
rfemur -26.6362 -4.8858 21.0235
rtibia 64.9597
rfoot 18.8511 -11.6042
rtoes -23.8805
lfemur -27.1074 4.94572 -21.6603
ltibia 56.1698
lfoot 33.9244 9.41063
ltoes -49.2951
313
root 9.75164 22.8231 16.7033 -146.844 2.48801 177.196
lowerback -33.1353 -3.84116 -5.0059
upperback -4.64807 -1.56713 -0.0315221
thorax 11.9947 -0.229534 2.16586
lowerneck 2.65024 -5.61628 -2.32504
upperneck 5.61047 -7.49743 4.14556
head 1.57193 -3.6477 1.63849
rclavicle -6.93262e-015 -1.15295e-014
rhumerus -27.4212 -23.1216 -74.8163
rradius 15.4616
rwrist 39.2031
rhand -6.80467 -57.71
rfingers 7.12502
rthumb 19.0587 -86.7962
lclavicle -6.93262e-015 -1.15295e-014
lhumerus -25.2266 -21.7275 84.6304
lradius 41.4226
lwrist -8.65422
lhand -27.6375 -16.0389
lfingers 7.12502
lthumb -1.03579 13.9383
rfemur -27.7959 -5.13925 21.2804
rtibia 66.2325
rfoot 17.8698 -12.8159
rtoes -21.4573
lfemur -27.5599 4.65598 -21.4696
ltibia 56.1508
lfoot 33.6326 9.17967
ltoes -50.5896
314
root 9.76819 22.9542 16.4602 -146.821 2.35591 177.257
lowerback -35.5326 -3.49442 -4.04603
upperback -2.73855 -1.44222 -0.815945
thorax 15.1028 -0.302825 0.784384
lowerneck 1.52408 -5.20487 -2.26417
upperneck 5.22958 -7.01382 5.82355
head 1.70084 -3.376 2.15176
rclavicle 1.59028e-015 -8.74653e-015
rhumerus -27.4433 -32.1531 -72.8017
rradius 12.9069
rwrist 46.7571
rhand -7.70922 -55.6069
rfingers 7.12502
rthumb 18.1886 -84.7765
lclavicle 1.59028e-015 -8.74653e-015
lhumerus -22.6767 -20.3513 83.0127
lradius 38.2474
lwrist -7.45254
lhand -26.8982 -16.0513
lfingers 7.12502
lthumb -0.321784 13.9282
rfemur -29.2236 -5.27118 21.6587
rtibia 67.6356
rfoot 16.8983 -13.5841
rtoes -19.7456
lfemur -28.3651 4.54094 -21.226
ltibia 56.4821
lfoot 33.3715 9.26414
ltoes -50.6515
315
root 9.7676 23.0558 16.1941 -146.951 2.11121 177.393
lowerback -32.5438 -3.69045 -4.72415
upperback -4.71605 -1.57022 0.161569
thorax 11.6811 -0.229999 2.22961
lowerneck 3.9339 -7.06289 -3.47186
upperneck 10.1282 -9.36092 5.78659
head 3.09082 -4.38307 2.34282
rclavicle 4.96962e-015 1.27222e-014
rhumerus -34.1051 -34.114 -65.9054
rradius 12.1311
rwrist 49.1953
rhand -4.98107 -54.7639
rfingers 7.12502
rthumb 20.8116 -83.6677
lclavicle 4.96962e-015 1.27222e-014
lhumerus -26.4236 -18.1853 86.304
lradius 35.5601
lwrist -7.27875
lhand -26.9353 -15.9221
lfingers 7.12502
lthumb -0.357638 14.0574
rfemur -30.2061 -5.6826 21.9191
rtibia 68.6877
rfoot 16.5063 -13.8345
rtoes -18.7839
lfemur -28.8435 4.26462 -20.9495
ltibia 56.6189
lfoot 33.2586 9.73367
ltoes -49.9065
316
root 9.77105 23.1437 15.9362 -147.325 1.88366 177.395
lowerback -32.3064 -3.53209 -4.49709
upperback -4.32882 -1.54842 0.0694359
thorax 12.0106 -0.270196 2.01407
lowerneck 2.78043 -5.73472 -3.80746
upperneck 7.8467 -7.70623 6.14438
head 2.4651 -3.66472 2.53875
rclavicle 4.42296e-015 -9.34288e-015
rhumerus -38.1087 -39.2383 -60.791
rradius 11.066
rwrist 53.8416
rhand -3.66094 -54.7036
rfingers 7.12502
rthumb 22.0795 -83.463
lclavicle 4.42296e-015 -9.34288e-015
lhumerus -26.4767 -16.3878 86.5572
lradius 32.9062
lwrist -6.55028
lhand -26.7135 -15.8733
lfingers 7.12502
lthumb -0.143333 14.1064
rfemur -30.9313 -6.11652 22.0404
rtibia 69.6002
rfoot 16.0479 -14.1073
rtoes -18.3919
lfemur -29.077 4.12861 -20.7557
ltibia 56.7909
lfoot 33.19 9.8568
ltoes -49.3042
317
root 9.79154 23.2215 15.7245 -147.424 1.38155 176.952
lowerback -31.7445 -3.7382 -4.89801
upperback -4.06736 -1.77552 -0.0253481
thorax 12.0926 -0.430727 2.04062
lowerneck 3.08122 -5.80677 -4.2395
upperneck 7.95073 -7.84524 7.22357
head 2.53655 -3.71122 2.98963
rclavicle 4.94477e-015 2.64384e-014
rhumerus -42.7929 -43.8432 -55.0378
rradius 10.2541
rwrist 58.5702
rhand -2.87728 -55.1741
rfingers 7.12502
rthumb 22.8317 -83.8428
lclavicle 4.94477e-015 2.64384e-014
lhumerus -26.4328 -14.3289 86.5308
lradius 30.5848
lwrist -5.75947
lhand -25.843 -15.7033
lfingers 7.12502
lthumb 0.69739 14.2753
rfemur -32.4126 -6.70696 22.0359
rtibia 70.8288
rfoot 14.7041 -14.5032
rtoes -19.9071
lfemur -30.2176 3.77723 -20.8725
ltibia 57.8013
lfoot 32.7973 9.52746
ltoes -49.1356
318
root 9.78311 23.2704 15.4536 -148.175 1.7652 177.168
lowerback -31.5322 -3.2426 -4.45942
upperback -3.3237 -1.44555 -0.205354
thorax 12.809 -0.365114 1.72884
lowerneck 3.42365 -6.06616 -4.84523
upperneck 8.18572 -8.251 8.65724
head 2.70053 -3.8793 3.60169
rclavicle 1.61513e-015 7.95139e-015
rhumerus -43.8461 -43.8151 -54.5298
rradius 9.6626
rwrist 57.5954
rhand -3.18459 -55.985
rfingers 7.12502
rthumb 22.5368 -84.6897
lclavicle 1.61513e-015 7.95139e-015
lhumerus -26.5054 -12.789 86.6456
lradius 28.6207
lwrist -5.61289
lhand -26.8394 -14.7731
lfingers 7.12502
lthumb -0.26498 15.2065
rfemur -32.99 -6.33203 21.8839
rtibia 71.7455
rfoot 19.1793 -14.6594
rtoes -2.01372
lfemur -29.9226 4.32861 -20.9012
ltibia 58.061
lfoot 32.2293 9.33276
ltoes -49.1253
